# Blender v2.78 (sub 0) OBJ File: ''
# www.blender.org
mtllib cube.mtl
o Cube
v 0.500000 -0.050000 -0.709002
v 0.400000 -0.150000 -0.709002
v 0.400000 -0.050000 -0.809000
v 0.486640 -0.099934 -0.709002
v 0.486640 -0.050000 -0.758935
v 0.473663 -0.097821 -0.756822
v 0.400000 -0.136640 -0.758935
v 0.449934 -0.136640 -0.709002
v 0.447821 -0.123663 -0.756822
v 0.449934 -0.050000 -0.795640
v 0.400000 -0.099934 -0.795640
v 0.447821 -0.097821 -0.782664
v 0.500000 -0.050000 0.709002
v 0.400000 -0.050000 0.809000
v 0.400000 -0.150000 0.709002
v 0.486640 -0.050000 0.758935
v 0.486640 -0.099934 0.709002
v 0.473663 -0.097821 0.756822
v 0.400000 -0.099934 0.795641
v 0.449934 -0.050000 0.795641
v 0.447821 -0.097821 0.782664
v 0.449934 -0.136640 0.709002
v 0.400000 -0.136640 0.758935
v 0.447821 -0.123663 0.756822
v -0.400000 -0.050000 0.809000
v -0.500000 -0.050000 0.709002
v -0.400000 -0.150000 0.709002
v -0.449934 -0.050000 0.795640
v -0.400000 -0.099934 0.795640
v -0.447821 -0.097821 0.782663
v -0.486640 -0.099934 0.709002
v -0.486640 -0.050000 0.758935
v -0.473663 -0.097821 0.756822
v -0.400000 -0.136640 0.758935
v -0.449934 -0.136640 0.709002
v -0.447821 -0.123663 0.756822
v -0.400000 -0.050000 -0.809000
v -0.400000 -0.150000 -0.709002
v -0.500000 -0.050000 -0.709002
v -0.400000 -0.099934 -0.795641
v -0.449934 -0.050000 -0.795641
v -0.447821 -0.097821 -0.782664
v -0.449934 -0.136640 -0.709002
v -0.400000 -0.136640 -0.758935
v -0.447821 -0.123663 -0.756822
v -0.486640 -0.050000 -0.758935
v -0.486640 -0.099934 -0.709002
v -0.473663 -0.097821 -0.756822
v 0.400000 0.050000 -0.809000
v 0.400000 0.150000 -0.709002
v 0.500000 0.050000 -0.709002
v 0.400000 0.099934 -0.795640
v 0.449934 0.050000 -0.795640
v 0.447821 0.097821 -0.782663
v 0.449934 0.136640 -0.709001
v 0.400000 0.136640 -0.758935
v 0.447821 0.123663 -0.756822
v 0.486640 0.050000 -0.758935
v 0.486640 0.099934 -0.709001
v 0.473663 0.097821 -0.756822
v 0.400000 0.050000 0.809000
v 0.500000 0.050000 0.709002
v 0.399999 0.150000 0.709002
v 0.449934 0.050000 0.795641
v 0.400000 0.099934 0.795641
v 0.447821 0.097821 0.782664
v 0.486640 0.099934 0.709002
v 0.486640 0.050000 0.758935
v 0.473663 0.097821 0.756822
v 0.399999 0.136640 0.758936
v 0.449934 0.136640 0.709002
v 0.447821 0.123663 0.756822
v -0.500000 0.050000 0.709002
v -0.400000 0.050000 0.809000
v -0.400000 0.150000 0.709002
v -0.486640 0.050000 0.758935
v -0.486640 0.099934 0.709002
v -0.473663 0.097821 0.756822
v -0.400000 0.099934 0.795640
v -0.449934 0.050000 0.795640
v -0.447821 0.097821 0.782663
v -0.449934 0.136640 0.709002
v -0.400000 0.136640 0.758935
v -0.447821 0.123663 0.756822
v -0.500000 0.050000 -0.709002
v -0.400000 0.150000 -0.709002
v -0.400000 0.050000 -0.809000
v -0.486640 0.099934 -0.709002
v -0.486640 0.050000 -0.758935
v -0.473663 0.097821 -0.756822
v -0.400000 0.136640 -0.758935
v -0.449934 0.136640 -0.709002
v -0.447821 0.123663 -0.756822
v -0.449934 0.050000 -0.795641
v -0.400000 0.099934 -0.795640
v -0.447821 0.097821 -0.782664
vt 0.7447 0.9948
vt 0.7447 0.9948
vt 0.2553 0.9948
vt 0.2553 0.9948
vt 0.7447 0.0052
vt 0.7447 0.0052
vt 0.2553 0.0052
vt 0.2553 0.0052
vt 0.1942 0.0663
vt 0.1942 0.0663
vt 0.1942 0.9337
vt 0.1942 0.9337
vt 0.7447 0.9337
vt 0.2553 0.9337
vt 0.2553 0.0663
vt 0.7447 0.0663
vt 0.8058 0.9337
vt 0.8058 0.9337
vt 0.8058 0.0663
vt 0.8058 0.0663
vt 0.7977 0.9337
vt 0.7897 0.9629
vt 0.7977 0.9642
vt 0.7752 0.9337
vt 0.7739 0.9629
vt 0.7447 0.9337
vt 0.7447 0.9642
vt 0.7447 0.9867
vt 0.7739 0.9787
vt 0.7752 0.9867
vt 0.7977 0.0358
vt 0.7897 0.0371
vt 0.7977 0.0663
vt 0.7752 0.0133
vt 0.7739 0.0213
vt 0.7447 0.0133
vt 0.7447 0.0358
vt 0.7739 0.0371
vt 0.7447 0.0663
vt 0.7752 0.0663
vt 0.2248 0.0133
vt 0.2261 0.0213
vt 0.2553 0.0133
vt 0.2023 0.0358
vt 0.2103 0.0371
vt 0.2023 0.0663
vt 0.2248 0.0663
vt 0.2261 0.0371
vt 0.2553 0.0663
vt 0.2553 0.0358
vt 0.2553 0.9867
vt 0.2261 0.9787
vt 0.2248 0.9867
vt 0.2553 0.9642
vt 0.2261 0.9629
vt 0.2553 0.9337
vt 0.2248 0.9337
vt 0.2023 0.9337
vt 0.2103 0.9629
vt 0.2023 0.9642
vt 0.7447 0.9867
vt 0.7739 0.9787
vt 0.7752 0.9867
vt 0.7447 0.9642
vt 0.7739 0.9629
vt 0.7752 0.9337
vt 0.7977 0.9337
vt 0.7897 0.9629
vt 0.7977 0.9642
vt 0.7752 0.0133
vt 0.7739 0.0213
vt 0.7447 0.0133
vt 0.7977 0.0358
vt 0.7897 0.0371
vt 0.7977 0.0663
vt 0.7752 0.0663
vt 0.7739 0.0371
vt 0.7447 0.0358
vt 0.2023 0.0358
vt 0.2103 0.0371
vt 0.2023 0.0663
vt 0.2248 0.0133
vt 0.2261 0.0213
vt 0.2553 0.0133
vt 0.2553 0.0358
vt 0.2261 0.0371
vt 0.2248 0.0663
vt 0.2023 0.9337
vt 0.2103 0.9629
vt 0.2023 0.9642
vt 0.2248 0.9337
vt 0.2261 0.9629
vt 0.2553 0.9642
vt 0.2553 0.9867
vt 0.2261 0.9787
vt 0.2248 0.9867
vn 0.1296 0.1296 -0.9831
vn 0.1296 -0.1296 -0.9831
vn -0.1296 -0.1296 -0.9831
vn -0.1296 0.1296 -0.9831
vn 0.1296 -0.1296 0.9831
vn 0.1296 0.1296 0.9831
vn -0.1296 0.1296 0.9831
vn -0.1296 -0.1296 0.9831
vn -0.9830 -0.1296 0.1296
vn -0.9830 0.1296 0.1296
vn -0.9830 0.1296 -0.1296
vn -0.9830 -0.1296 -0.1296
vn 0.1296 0.9830 -0.1296
vn -0.1296 0.9830 -0.1296
vn -0.1296 0.9830 0.1296
vn 0.1296 0.9830 0.1296
vn 0.9830 -0.1296 -0.1296
vn 0.9830 0.1296 -0.1296
vn 0.9830 0.1296 0.1296
vn 0.9830 -0.1296 0.1296
vn 0.8623 -0.4915 -0.1216
vn 0.7744 -0.4473 -0.4473
vn 0.8623 -0.1216 -0.4915
vn 0.4915 -0.8623 -0.1216
vn 0.4473 -0.7744 -0.4473
vn 0.1296 -0.9830 -0.1296
vn 0.1216 -0.8623 -0.4915
vn 0.1216 -0.4915 -0.8623
vn 0.4473 -0.4473 -0.7744
vn 0.4915 -0.1216 -0.8623
vn 0.8623 -0.1216 0.4915
vn 0.7744 -0.4473 0.4473
vn 0.8623 -0.4915 0.1216
vn 0.4915 -0.1216 0.8623
vn 0.4473 -0.4473 0.7744
vn 0.1216 -0.4915 0.8623
vn 0.1216 -0.8623 0.4915
vn 0.4473 -0.7744 0.4473
vn 0.1296 -0.9830 0.1296
vn 0.4915 -0.8623 0.1216
vn -0.4915 -0.1216 0.8623
vn -0.4473 -0.4473 0.7744
vn -0.1216 -0.4915 0.8623
vn -0.8623 -0.1216 0.4915
vn -0.7744 -0.4473 0.4473
vn -0.8623 -0.4915 0.1216
vn -0.4915 -0.8623 0.1216
vn -0.4473 -0.7744 0.4473
vn -0.1296 -0.9830 0.1296
vn -0.1216 -0.8623 0.4915
vn -0.1216 -0.4915 -0.8623
vn -0.4473 -0.4473 -0.7744
vn -0.4915 -0.1216 -0.8623
vn -0.1216 -0.8623 -0.4915
vn -0.4473 -0.7744 -0.4473
vn -0.1296 -0.9830 -0.1296
vn -0.4915 -0.8623 -0.1216
vn -0.8623 -0.4915 -0.1216
vn -0.7744 -0.4473 -0.4473
vn -0.8623 -0.1216 -0.4915
vn 0.1216 0.4915 -0.8623
vn 0.4473 0.4473 -0.7744
vn 0.4915 0.1216 -0.8623
vn 0.1216 0.8623 -0.4915
vn 0.4473 0.7744 -0.4473
vn 0.4915 0.8623 -0.1216
vn 0.8623 0.4915 -0.1216
vn 0.7744 0.4473 -0.4473
vn 0.8623 0.1216 -0.4915
vn 0.4915 0.1216 0.8623
vn 0.4473 0.4473 0.7744
vn 0.1216 0.4915 0.8623
vn 0.8623 0.1216 0.4915
vn 0.7744 0.4473 0.4473
vn 0.8623 0.4915 0.1216
vn 0.4915 0.8623 0.1216
vn 0.4473 0.7744 0.4473
vn 0.1216 0.8623 0.4915
vn -0.8623 0.1216 0.4915
vn -0.7744 0.4473 0.4473
vn -0.8623 0.4915 0.1216
vn -0.4915 0.1216 0.8623
vn -0.4473 0.4473 0.7744
vn -0.1216 0.4915 0.8623
vn -0.1216 0.8623 0.4915
vn -0.4473 0.7744 0.4473
vn -0.4915 0.8623 0.1216
vn -0.8623 0.4915 -0.1216
vn -0.7744 0.4473 -0.4473
vn -0.8623 0.1216 -0.4915
vn -0.4915 0.8623 -0.1216
vn -0.4473 0.7744 -0.4473
vn -0.1216 0.8623 -0.4915
vn -0.1216 0.4915 -0.8623
vn -0.4473 0.4473 -0.7744
vn -0.4915 0.1216 -0.8623
usemtl Material
s 1
f 49/1/1 3/2/2 37/3/3 87/4/4
f 14/5/5 61/6/6 74/7/7 25/8/8
f 26/9/9 73/10/10 85/11/11 39/12/12
f 50/13/13 86/14/14 75/15/15 63/16/16
f 1/17/17 51/18/18 62/19/19 13/20/20
f 1/17/17 4/21/21 6/22/22 5/23/23
f 4/21/21 8/24/24 9/25/25 6/22/22
f 2/26/26 7/27/27 9/25/25 8/24/24
f 7/27/27 11/28/28 12/29/29 9/25/25
f 3/2/2 10/30/30 12/29/29 11/28/28
f 10/30/30 5/23/23 6/22/22 12/29/29
f 6/22/22 9/25/25 12/29/29
f 13/20/20 16/31/31 18/32/32 17/33/33
f 16/31/31 20/34/34 21/35/35 18/32/32
f 14/5/5 19/36/36 21/35/35 20/34/34
f 19/36/36 23/37/37 24/38/38 21/35/35
f 15/39/39 22/40/40 24/38/38 23/37/37
f 22/40/40 17/33/33 18/32/32 24/38/38
f 18/32/32 21/35/35 24/38/38
f 25/8/8 28/41/41 30/42/42 29/43/43
f 28/41/41 32/44/44 33/45/45 30/42/42
f 26/9/9 31/46/46 33/45/45 32/44/44
f 31/46/46 35/47/47 36/48/48 33/45/45
f 27/49/49 34/50/50 36/48/48 35/47/47
f 34/50/50 29/43/43 30/42/42 36/48/48
f 30/42/42 33/45/45 36/48/48
f 37/3/3 40/51/51 42/52/52 41/53/53
f 40/51/51 44/54/54 45/55/55 42/52/52
f 38/56/56 43/57/57 45/55/55 44/54/54
f 43/57/57 47/58/58 48/59/59 45/55/55
f 39/12/12 46/60/60 48/59/59 47/58/58
f 46/60/60 41/53/53 42/52/52 48/59/59
f 42/52/52 45/55/55 48/59/59
f 49/1/1 52/61/61 54/62/62 53/63/63
f 52/61/61 56/64/64 57/65/65 54/62/62
f 50/13/13 55/66/66 57/65/65 56/64/64
f 55/66/66 59/67/67 60/68/68 57/65/65
f 51/18/18 58/69/69 60/68/68 59/67/67
f 58/69/69 53/63/63 54/62/62 60/68/68
f 54/62/62 57/65/65 60/68/68
f 61/6/6 64/70/70 66/71/71 65/72/72
f 64/70/70 68/73/73 69/74/74 66/71/71
f 62/19/19 67/75/75 69/74/74 68/73/73
f 67/75/75 71/76/76 72/77/77 69/74/74
f 63/16/16 70/78/78 72/77/77 71/76/76
f 70/78/78 65/72/72 66/71/71 72/77/77
f 66/71/71 69/74/74 72/77/77
f 73/10/10 76/79/79 78/80/80 77/81/81
f 76/79/79 80/82/82 81/83/83 78/80/80
f 74/7/7 79/84/84 81/83/83 80/82/82
f 79/84/84 83/85/85 84/86/86 81/83/83
f 75/15/15 82/87/87 84/86/86 83/85/85
f 82/87/87 77/81/81 78/80/80 84/86/86
f 78/80/80 81/83/83 84/86/86
f 85/11/11 88/88/88 90/89/89 89/90/90
f 88/88/88 92/91/91 93/92/92 90/89/89
f 86/14/14 91/93/93 93/92/92 92/91/91
f 91/93/93 95/94/94 96/95/95 93/92/92
f 87/4/4 94/96/96 96/95/95 95/94/94
f 94/96/96 89/90/90 90/89/89 96/95/95
f 90/89/89 93/92/92 96/95/95
f 1/17/17 13/20/20 17/33/33 4/21/21
f 4/21/21 17/33/33 22/40/40 8/24/24
f 8/24/24 22/40/40 15/39/39 2/26/26
f 2/26/26 38/56/56 44/54/54 7/27/27
f 7/27/27 44/54/54 40/51/51 11/28/28
f 11/28/28 40/51/51 37/3/3 3/2/2
f 3/2/2 49/1/1 53/63/63 10/30/30
f 10/30/30 53/63/63 58/69/69 5/23/23
f 5/23/23 58/69/69 51/18/18 1/17/17
f 14/5/5 25/8/8 29/43/43 19/36/36
f 19/36/36 29/43/43 34/50/50 23/37/37
f 23/37/37 34/50/50 27/49/49 15/39/39
f 13/20/20 62/19/19 68/73/73 16/31/31
f 16/31/31 68/73/73 64/70/70 20/34/34
f 20/34/34 64/70/70 61/6/6 14/5/5
f 26/9/9 39/12/12 47/58/58 31/46/46
f 31/46/46 47/58/58 43/57/57 35/47/47
f 35/47/47 43/57/57 38/56/56 27/49/49
f 25/8/8 74/7/7 80/82/82 28/41/41
f 28/41/41 80/82/82 76/79/79 32/44/44
f 32/44/44 76/79/79 73/10/10 26/9/9
f 39/12/12 85/11/11 89/90/90 46/60/60
f 46/60/60 89/90/90 94/96/96 41/53/53
f 41/53/53 94/96/96 87/4/4 37/3/3
f 50/13/13 63/16/16 71/76/76 55/66/66
f 55/66/66 71/76/76 67/75/75 59/67/67
f 59/67/67 67/75/75 62/19/19 51/18/18
f 49/1/1 87/4/4 95/94/94 52/61/61
f 52/61/61 95/94/94 91/93/93 56/64/64
f 56/64/64 91/93/93 86/14/14 50/13/13
f 63/16/16 75/15/15 83/85/85 70/78/78
f 70/78/78 83/85/85 79/84/84 65/72/72
f 65/72/72 79/84/84 74/7/7 61/6/6
f 75/15/15 86/14/14 92/91/91 82/87/87
f 82/87/87 92/91/91 88/88/88 77/81/81
f 77/81/81 88/88/88 85/11/11 73/10/10
f 2/26/26 15/39/39 27/49/49 38/56/56
